<?xml version="1.0" encoding="iso-8859-1"?>
<!-- Uploaded to: SVG Repo, www.svgrepo.com, Generator: SVG Repo Mixer Tools -->
<svg fill="#000000" height="800px" width="800px" version="1.1" id="Layer_1" xmlns="http://www.w3.org/2000/svg" xmlns:xlink="http://www.w3.org/1999/xlink" 
	 viewBox="0 0 299.88 299.88" xml:space="preserve">
<g>
	<g>
		<path d="M299.88,120.417c0-94.862-87.253-105.84-152.88-105.84c-86.554,0-147,41.101-147,99.96
			c0,36.856,29.118,37.673,59.947,38.543c26.172,0.735,58.741,1.67,86.383,22.397c16.889,12.676,39.101,21.519,60.814,24.613
			l-0.256,0.183c0.2,0.288,20.104,28.977,22.432,85.031l11.76-0.494c-1.797-43.166-13.335-70.927-19.971-83.535
			c0.874,0.021,1.745,0.033,2.613,0.033c2.455,0,4.845-0.1,7.196-0.259c3.135,4.907,19.802,33.246,21.921,84.255l11.76-0.494
			c-1.897-45.551-14.634-73.934-21.018-85.472C279.193,191.898,299.875,163.578,299.88,120.417z M261.528,179.882
			c-0.917-25.211-15.084-38.509-41.116-38.509c-10.737,0-43.4,0-53.543-20.268c-1.452-2.893-4.992-4.075-7.891-2.622
			c-2.905,1.452-4.081,4.986-2.628,7.891c13.389,26.778,51.532,26.778,64.068,26.778c20.339,0,29.406,9.061,29.406,29.4
			c0,0.968,0.237,1.878,0.65,2.683c-9.341,3.37-18.912,4.326-26.751,4.326c-24.079,0-51.032-8.991-70.342-23.473
			c-10.519-7.892-21.513-13.188-32.542-16.774l21.411-21.411c2.299-2.305,2.299-6.015,0-8.314c-2.305-2.305-6.015-2.305-8.314,0
			l-23.52,23.52c-0.838,0.836-1.362,1.86-1.591,2.933c-17.026-3.807-33.755-4.281-48.554-4.703
			c-15.102-0.428-26.41-0.963-34.3-3.621c6.859-13.175,26.542-26.109,44.179-28.971c8.273-1.335,19.957-1.158,28.512,7.397
			c2.305,2.299,6.015,2.299,8.314,0c2.305-2.305,2.305-6.015,0-8.314c-9.543-9.555-22.944-13.23-38.702-10.69
			c-21.099,3.417-43.114,17.901-52.159,34.074c-2.941-3.817-4.359-9.15-4.359-16.669c0-22.26,10.225-41.637,28.171-56.518
			C46.2,69.221,55.634,76.315,66.714,78.116c1.799,0.3,3.593,0.435,5.38,0.435c8.661,0,17.023-3.352,23.103-9.461
			c2.446-2.446,4.769-5.221,7.227-8.15c11.313-13.506,19.192-21.197,33.028-14.283c2.899,1.447,6.439,0.276,7.891-2.622
			c1.452-2.905,0.276-6.445-2.622-7.891c-23.173-11.572-37.679,5.78-47.305,17.246c-2.281,2.728-4.439,5.304-6.521,7.385
			c-4.686,4.68-11.513,6.833-18.299,5.727c-7.829-1.266-14.584-6.788-19.095-15.526c23.857-15.564,57.672-24.634,97.494-24.634
			c15.654,0,29.909,0.751,42.824,2.274l-18.611,7.323c-3.011,1.182-4.498,4.598-3.316,7.626c0.923,2.311,3.14,3.722,5.48,3.722
			c0.711,0,1.446-0.124,2.152-0.412l36.865-14.505c23.252,5.165,40.871,13.716,53.233,25.911c-0.655,0.948-1.04,2.097-1.04,3.341
			c0,19.822-9.19,41.16-29.4,41.16c-15.653,0-20.274-10.072-25.625-21.732c-4.716-10.308-10.084-21.985-24.42-21.985
			c-3.258,0-5.88,2.628-5.88,5.88c0,3.258,2.622,5.88,5.88,5.88c6.186,0,8.802,4.386,13.742,15.135
			c5.539,12.054,13.118,28.583,36.315,28.583c24.856,0,37.805-21.177,40.575-43.607c8.323,13.306,12.345,29.733,12.345,49.487
			C288.114,153.065,276.235,170.634,261.528,179.882z"/>
	</g>
</g>
</svg>