<svg xmlns:dc="http://purl.org/dc/elements/1.1/" xmlns:cc="http://creativecommons.org/ns#" xmlns:rdf="http://www.w3.org/1999/02/22-rdf-syntax-ns#" xmlns:svg="http://www.w3.org/2000/svg" xmlns="http://www.w3.org/2000/svg" viewBox="0 0 130 130" height="130" width="130" xml:space="preserve" id="svg2" version="1.1"><metadata id="metadata8"><rdf:rdf><cc:work rdf:about=""><dc:format>image/svg+xml</dc:format><dc:type rdf:resource="http://purl.org/dc/dcmitype/StillImage"></dc:type></cc:work></rdf:rdf></metadata><defs id="defs6"><clipPath id="clipPath18" clipPathUnits="userSpaceOnUse"><path id="path16" d="M 0,97.33 H 264.475 V 0 H 0 Z"></path></clipPath></defs><g transform="matrix(1.3333333,0,0,-1.3333333,0,129.77267)" id="g10"><g id="g12"><g clip-path="url(#clipPath18)" id="g14">
       <g transform="translate(59.1311,45.6339)" id="g20">
       <path id="path22" style="fill:#ef3428;fill-opacity:1;fill-rule:nonzero;stroke:none" d="m 0,0 c -0.282,-0.286 -0.042,-0.015 -0.011,0.011 0,0 0.012,-10e-4 0.011,-0.005 V 0 C 0.006,0 0,0 0.006,0.006 0.035,-0.218 0.009,-0.057 0,0 m -5.889,27.266 c -6.196,6.196 -12.11,12.101 -13.869,18.76 -1.76,-6.659 -7.673,-12.564 -13.87,-18.76 -9.295,-9.289 -19.834,-19.818 -19.834,-35.608 0,-14.486 9.183,-26.864 22.032,-31.623 3.184,10.116 7.752,25.639 8.013,32.246 0.062,1.661 -0.866,0.89 -1.008,0.563 l -0.147,-0.328 c 0,0 -6.486,-20.518 -7.358,-22.432 -0.436,-1.169 -1.104,0.311 -1.104,0.311 l -2.027,25.602 c -0.028,0.109 -0.117,0.221 -0.217,0.328 -0.948,0.276 -2.939,0.853 -3.357,1.231 -0.561,0.511 -1.339,0.664 -1.528,0.962 -0.191,0.299 0.015,0.386 0.015,0.386 0,0 -0.418,0.334 0.011,0.539 -0.524,0.44 0.202,0.557 0.34,0.488 -0.317,0.487 0.527,0.358 0.527,0.358 0,0 1.046,-0.177 2.028,-0.358 -0.181,0.254 0.25,0.562 0.525,0.548 0.413,-0.021 1.851,-0.394 3.197,-2.001 l 2.135,0.404 c 0,0 2.675,10.285 7.454,10.803 -0.968,4.749 1.428,8.083 1.931,8.552 0.505,0.468 2.127,1.238 2.871,1.876 0.919,-0.892 4.51,-3.354 6.901,-7.312 0.148,-0.461 -0.284,-0.667 -0.669,-0.273 -0.592,0.614 -1.699,1.64 -1.906,1.311 -0.532,-0.78 2.657,-3.778 1.867,-5.265 6.084,-3.145 6.824,-12.2 8.271,-13.158 0.54,-0.369 1.031,-0.892 1.434,-1.412 0.517,0.4 1.117,1.113 1.641,1.528 0.289,0.316 1.15,0.534 1.224,0.359 l 0.006,0.011 c 0,0 0.006,-0.012 0.006,-0.016 l 0.006,-0.001 c 0.318,0.318 0.688,0.702 0.89,0.953 0.28,0.179 0.307,-0.111 0.307,-0.111 0,0 0.363,0.06 0.35,-0.166 0.268,-0.082 0.201,-0.316 0.048,-0.655 0.166,-0.076 0.086,-0.475 0.086,-0.475 0,0 -0.17,-0.729 -0.347,-1.038 C 0.81,-5.928 0.358,-6.529 -0.171,-6.922 -0.596,-7.236 -1.399,-7.36 -2.149,-7.673 l -3.057,-20.216 c 0,0 -1.08,-1.834 -1.121,0.125 -0.152,6.927 -4.149,18.701 -4.149,18.701 0,0 -1.213,1.344 -0.854,-0.088 1.348,-5.459 2.747,-21.045 3.483,-30.719 12.723,4.823 21.794,17.132 21.793,31.528 0,15.79 -10.537,26.319 -19.835,35.608"></path></g><g transform="translate(129.4089,40.1014)" id="g24"></g></g></g></g>
</svg>